<svg xmlns="http://www.w3.org/2000/svg" height="1024" preserveAspectRatio="none" style="display: block;" version="1.1" viewBox="400 400 1248 1248" width="1024">
<!-- <path d="M 0 0 L 2048 0 L 2048 2048 L 0 2048 L 0 0 z" fill="rgb(255,255,255)" transform="translate(0,0)"></path> -->
<path d="M 967.009 535.101 C 966.942 533.034 966.901 530.966 966.886 528.898 C 966.409 450.033 1088.18 446.365 1083.02 535.435 L 1199.8 599.49 C 1201.87 600.292 1204.06 601.593 1206.29 602.596 C 1217.99 607.674 1247.39 613.165 1261.84 616.316 C 1285.52 621.482 1316.46 631.199 1339.51 634.293 C 1363.67 618.536 1395.68 622.606 1415.12 643.907 C 1434.57 665.207 1435.71 697.46 1417.82 720.079 C 1420.56 737.533 1426.71 760.689 1430.92 778.661 C 1435.78 799.421 1441.47 830.257 1448.23 849.858 L 1515.94 965.682 C 1528.63 967.27 1539.45 968.65 1550.55 975.701 C 1570.39 988.3 1578.74 1010.58 1575.66 1033.46 C 1573.53 1049.06 1565.13 1063.11 1552.39 1072.36 C 1540.81 1080.89 1529.55 1083.35 1515.68 1084.37 C 1501.94 1107.48 1488.33 1130.67 1474.86 1153.94 C 1466.6 1167.92 1455.22 1185.97 1448.21 1200.19 C 1444.5 1208.21 1439.97 1227.61 1437.53 1236.96 C 1432.03 1257.49 1426.81 1278.09 1421.88 1298.76 C 1421.39 1300.88 1416.68 1322.94 1416.42 1323.4 C 1434.94 1345.1 1435.33 1376.94 1417.33 1399.08 C 1399.34 1421.22 1368.11 1427.36 1343.07 1413.67 C 1301.62 1421.9 1260.4 1432.17 1218.97 1440.64 C 1213.8 1441.69 1208.38 1442.89 1203.45 1444.73 C 1164.42 1466.89 1124.05 1490.27 1084.29 1510.98 C 1083.59 1531.73 1082.22 1547.63 1065.57 1562.87 C 1053.86 1573.5 1038.38 1578.99 1022.58 1578.12 C 1006.76 1577.32 991.919 1570.22 981.364 1558.41 C 968.583 1543.95 966.883 1529.83 966.406 1511.68 L 852.693 1448.76 C 850.576 1447.71 848.798 1446.66 846.631 1445.63 C 838.241 1441.84 805.252 1435.46 794.82 1433.16 C 765.932 1426.8 737.147 1419.98 708.474 1412.7 C 683.673 1427.15 652.076 1421.63 633.637 1399.63 C 615.199 1377.64 615.278 1345.57 633.824 1323.66 C 632.209 1313.12 628.145 1300.06 625.629 1289.5 C 619.814 1265.07 612.25 1239.99 606.916 1215.49 C 605.938 1211.61 603.476 1204.1 602.825 1200.95 C 601.398 1198.1 599.413 1194.92 598.338 1192.12 C 593.009 1185.04 580.407 1162.83 575.52 1154.49 C 561.747 1130.46 547.507 1106.7 532.807 1083.23 C 517.882 1083.1 504.993 1080.07 493.115 1070.3 C 481.391 1060.77 473.982 1046.94 472.549 1031.91 C 469.702 1001.9 487.504 975.826 516.935 968.358 C 522.602 966.92 528.35 966.487 534.161 965.926 C 538.788 955.45 548.47 940.13 554.294 929.89 C 569.705 902.793 586.832 876.531 601.767 849.143 C 607.173 831.426 611.04 809.045 615.405 790.609 C 620.957 767.156 627.396 743.381 632.419 719.923 C 614.791 697.567 615.69 665.799 634.554 644.476 C 653.419 623.153 684.841 618.388 709.179 633.16 C 753 622.702 802.864 614.145 845.712 602.334 C 854.69 596.643 867.63 589.932 877.136 584.562 C 906.979 567.867 936.937 551.38 967.009 535.101 z" fill="rgb(255,255,255)" transform="translate(0,0)"></path>
<path d="M 1203.2 1441.49 L 1203.45 1444.73 C 1164.42 1466.89 1124.05 1490.27 1084.29 1510.98 C 1083.59 1531.73 1082.22 1547.63 1065.57 1562.87 C 1053.86 1573.5 1038.38 1578.99 1022.58 1578.12 C 1006.76 1577.32 991.919 1570.22 981.364 1558.41 C 968.583 1543.95 966.883 1529.83 966.406 1511.68 L 852.693 1448.76 L 856.253 1446.28 C 862.335 1447.91 869.484 1449.39 875.693 1450.65 C 911.992 1458.03 949.067 1469.34 985.429 1475.57 C 1009.21 1455.1 1040.92 1453.99 1064.12 1476.35 C 1096.69 1468.83 1129.29 1460.55 1161.57 1451.91 C 1173.77 1448.64 1192.4 1445.41 1203.2 1441.49 z" fill="rgb(16,14,106)" transform="translate(0,0)"></path>
<path d="M 967.009 535.101 C 966.942 533.034 966.901 530.966 966.886 528.898 C 966.409 450.033 1088.18 446.365 1083.02 535.435 L 1199.8 599.49 C 1197.05 600.604 1196.16 600.768 1193.21 601.409 C 1153.35 589.856 1108.15 582.83 1067.12 570.596 C 1037.3 594.384 1014.34 593.125 984.569 570.649 L 896.509 591.477 C 886.72 593.772 859.2 599.013 851.515 603.172 L 845.712 602.334 C 854.69 596.643 867.63 589.932 877.136 584.562 C 906.979 567.867 936.937 551.38 967.009 535.101 z" fill="rgb(16,14,106)" transform="translate(0,0)"></path>
<path d="M 601.767 849.143 L 603.558 853.952 C 601.097 859.644 599.096 865.639 597.752 871.691 C 589.632 908.253 578.963 944.324 570.304 980.719 C 596.386 1005.47 598.473 1040.72 573.179 1066.35 C 572.301 1067.24 571.413 1068.12 570.515 1068.99 C 579.054 1108.24 591.863 1147.41 599.89 1185.01 C 599.52 1188.38 599.673 1189.19 598.338 1192.12 C 593.009 1185.04 580.407 1162.83 575.52 1154.49 C 561.747 1130.46 547.507 1106.7 532.807 1083.23 C 517.882 1083.1 504.993 1080.07 493.115 1070.3 C 481.391 1060.77 473.982 1046.94 472.549 1031.91 C 469.702 1001.9 487.504 975.826 516.935 968.358 C 522.602 966.92 528.35 966.487 534.161 965.926 C 538.788 955.45 548.47 940.13 554.294 929.89 C 569.705 902.793 586.832 876.531 601.767 849.143 z" fill="rgb(16,14,106)" transform="translate(0,0)"></path>
<path d="M 1448.23 849.858 L 1515.94 965.682 C 1528.63 967.27 1539.45 968.65 1550.55 975.701 C 1570.39 988.3 1578.74 1010.58 1575.66 1033.46 C 1573.53 1049.06 1565.13 1063.11 1552.39 1072.36 C 1540.81 1080.89 1529.55 1083.35 1515.68 1084.37 C 1501.94 1107.48 1488.33 1130.67 1474.86 1153.94 C 1466.6 1167.92 1455.22 1185.97 1448.21 1200.19 C 1447.98 1196.78 1448.2 1192.47 1448.27 1188.97 C 1452.85 1175.95 1457.91 1153.95 1461.34 1140.21 L 1479.39 1069.01 C 1450.29 1040.87 1454.47 1008.58 1478.94 979.432 C 1469.19 938.361 1458.82 897.443 1447.81 856.692 L 1448.23 849.858 z" fill="rgb(16,14,106)" transform="translate(0,0)"></path>
<path d="M 1314.33 1377.09 C 1309.04 1357.36 1314.32 1336.3 1328.28 1321.39 C 1342.24 1306.47 1362.9 1299.82 1382.94 1303.79 C 1395.99 1306.38 1407.78 1313.29 1416.42 1323.4 C 1434.94 1345.1 1435.33 1376.94 1417.33 1399.08 C 1399.34 1421.22 1368.11 1427.36 1343.07 1413.67 C 1328.9 1405.92 1318.51 1392.7 1314.33 1377.09 z" fill="rgb(16,14,106)" transform="translate(0,0)"></path>
<path d="M 669.063 1303.62 C 688.833 1300.31 708.933 1307.26 722.421 1322.09 C 735.909 1336.92 740.938 1357.59 735.769 1376.96 C 731.752 1392.01 721.939 1404.86 708.474 1412.7 C 683.673 1427.15 652.076 1421.63 633.637 1399.63 C 615.199 1377.64 615.278 1345.57 633.824 1323.66 C 642.832 1313.03 655.317 1305.93 669.063 1303.62 z" fill="rgb(16,14,106)" transform="translate(0,0)"></path>
<path d="M 632.419 719.923 C 614.791 697.567 615.69 665.799 634.554 644.476 C 653.419 623.153 684.841 618.388 709.179 633.16 C 722.984 641.538 732.74 655.221 736.163 671.002 C 740.328 690.207 734.634 710.224 720.984 724.362 C 707.335 738.499 687.53 744.892 668.191 741.404 C 654.044 738.852 641.32 731.212 632.419 719.923 z" fill="rgb(16,14,106)" transform="translate(0,0)"></path>
<path d="M 1339.51 634.293 C 1363.67 618.536 1395.68 622.606 1415.12 643.907 C 1434.57 665.207 1435.71 697.46 1417.82 720.079 C 1408.49 731.864 1395.02 739.637 1380.15 741.803 C 1360.74 744.63 1341.2 737.6 1328.03 723.057 C 1314.87 708.514 1309.83 688.37 1314.57 669.339 C 1318.16 654.928 1327.07 642.408 1339.51 634.293 z" fill="rgb(16,14,106)" transform="translate(0,0)"></path>
<path d="M 735.769 1376.96 C 760.099 1392.79 789.488 1407.49 814.666 1422.54 C 822.272 1427.09 844.163 1438.13 850.158 1443.53 L 846.631 1445.63 C 838.241 1441.84 805.252 1435.46 794.82 1433.16 C 765.932 1426.8 737.147 1419.98 708.474 1412.7 C 721.939 1404.86 731.752 1392.01 735.769 1376.96 z" fill="rgb(13,195,251)" transform="translate(0,0)"></path>
<path d="M 1314.33 1377.09 C 1318.51 1392.7 1328.9 1405.92 1343.07 1413.67 C 1301.62 1421.9 1260.4 1432.17 1218.97 1440.64 C 1213.8 1441.69 1208.38 1442.89 1203.45 1444.73 L 1203.2 1441.49 C 1206.22 1436.98 1303.5 1382.38 1314.33 1377.09 z" fill="rgb(13,195,251)" transform="translate(0,0)"></path>
<path d="M 709.179 633.16 C 753 622.702 802.864 614.145 845.712 602.334 L 851.515 603.172 C 845.42 608.721 822.463 621.193 813.943 626.127 L 736.163 671.002 C 732.74 655.221 722.984 641.538 709.179 633.16 z" fill="rgb(13,195,251)" transform="translate(0,0)"></path>
<path d="M 1199.8 599.49 C 1201.87 600.292 1204.06 601.593 1206.29 602.596 C 1217.99 607.674 1247.39 613.165 1261.84 616.316 C 1285.52 621.482 1316.46 631.199 1339.51 634.293 C 1327.07 642.408 1318.16 654.928 1314.57 669.339 C 1277.07 648.588 1232.59 624.6 1197.11 602.217 C 1195.81 601.963 1194.51 601.694 1193.21 601.409 C 1196.16 600.768 1197.05 600.604 1199.8 599.49 z" fill="rgb(13,195,251)" transform="translate(0,0)"></path>
<path d="M 1199.8 599.49 C 1201.87 600.292 1204.06 601.593 1206.29 602.596 C 1202.33 602.843 1200.99 602.361 1197.11 602.217 C 1195.81 601.963 1194.51 601.694 1193.21 601.409 C 1196.16 600.768 1197.05 600.604 1199.8 599.49 z" fill="rgb(16,43,118)" transform="translate(0,0)"></path>
<path d="M 632.419 719.923 C 641.32 731.212 654.044 738.852 668.191 741.404 C 645.953 777.835 626.304 817.49 603.558 853.952 L 601.767 849.143 C 607.173 831.426 611.04 809.045 615.405 790.609 C 620.957 767.156 627.396 743.381 632.419 719.923 z" fill="rgb(13,195,251)" transform="translate(0,0)"></path>
<path d="M 1417.82 720.079 C 1420.56 737.533 1426.71 760.689 1430.92 778.661 C 1435.78 799.421 1441.47 830.257 1448.23 849.858 L 1447.81 856.692 C 1440.23 848.681 1429.09 826.263 1423.02 815.77 C 1408.54 791.224 1394.25 766.568 1380.15 741.803 C 1395.02 739.637 1408.49 731.864 1417.82 720.079 z" fill="rgb(13,195,251)" transform="translate(0,0)"></path>
<path d="M 1448.27 1188.97 C 1448.2 1192.47 1447.98 1196.78 1448.21 1200.19 C 1444.5 1208.21 1439.97 1227.61 1437.53 1236.96 C 1432.03 1257.49 1426.81 1278.09 1421.88 1298.76 C 1421.39 1300.88 1416.68 1322.94 1416.42 1323.4 C 1407.78 1313.29 1395.99 1306.38 1382.94 1303.79 C 1386.49 1294.54 1399.81 1272.18 1405.19 1262.56 C 1414.06 1246.65 1423.11 1230.83 1432.34 1215.12 C 1436.77 1207.51 1443.18 1195.77 1448.27 1188.97 z" fill="rgb(13,195,251)" transform="translate(0,0)"></path>
<path d="M 606.916 1215.49 C 607.848 1211.49 607.027 1208.38 611.593 1208.26 L 613.075 1208.18 L 647.629 1268.5 C 651.911 1275.97 663.873 1297.23 669.063 1303.62 C 655.317 1305.93 642.832 1313.03 633.824 1323.66 C 632.209 1313.12 628.145 1300.06 625.629 1289.5 C 619.814 1265.07 612.25 1239.99 606.916 1215.49 z" fill="rgb(13,195,251)" transform="translate(0,0)"></path>
<path d="M 599.89 1185.01 C 600.52 1186.68 601.116 1188.21 601.648 1189.91 C 607.014 1195.88 609.361 1201.17 613.075 1208.18 L 611.593 1208.26 C 607.027 1208.38 607.848 1211.49 606.916 1215.49 C 605.938 1211.61 603.476 1204.1 602.825 1200.95 C 601.398 1198.1 599.413 1194.92 598.338 1192.12 C 599.673 1189.19 599.52 1188.38 599.89 1185.01 z" fill="rgb(35,203,247)" transform="translate(0,0)"></path>
<path d="M 599.89 1185.01 C 600.52 1186.68 601.116 1188.21 601.648 1189.91 C 601.963 1193.81 602.697 1197.27 602.825 1200.95 C 601.398 1198.1 599.413 1194.92 598.338 1192.12 C 599.673 1189.19 599.52 1188.38 599.89 1185.01 z" fill="rgb(16,43,118)" transform="translate(0,0)"></path>
<path d="M 850.158 1443.53 C 852.509 1445.02 853.505 1445.58 856.253 1446.28 L 852.693 1448.76 C 850.576 1447.71 848.798 1446.66 846.631 1445.63 L 850.158 1443.53 z" fill="rgb(16,43,118)" transform="translate(0,0)"></path>
<path d="M 1125.15 825.408 C 1141.19 823.557 1164.42 826.991 1179.97 830.812 C 1222.67 841.304 1261.77 871.8 1284.14 909.508 C 1306.83 948.499 1313.21 994.877 1301.88 1038.55 C 1290.6 1081.68 1262.59 1118.55 1224.05 1140.97 C 1183.98 1164.49 1136.15 1170.98 1091.25 1159 C 1068.98 1152.85 1048.49 1143.03 1029.81 1129.45 C 965.494 1082.68 941.767 1012.7 962.904 936.373 C 965.448 928.681 967.212 924.68 970.736 917.33 C 983.385 924.172 1003.87 949.938 1010.75 963.113 C 1008.28 987.652 1007.28 1009.28 1017.08 1032.81 C 1043.17 1095.38 1122.07 1129.11 1185.15 1101.97 C 1213.49 1089.74 1235.78 1066.71 1247.09 1037.99 C 1258.14 1009.2 1257.23 977.18 1244.55 949.061 C 1215.58 883.893 1141.16 864.059 1078.68 893.057 C 1070.17 876.862 1055.35 867.496 1045.41 853.039 C 1042.72 849.122 1055.97 843.482 1058.29 842.448 C 1079.83 832.848 1101.63 827.289 1125.15 825.408 z" fill="rgb(16,14,106)" transform="translate(0,0)"></path>
<path d="M 903.555 828.415 C 933.377 826.699 963.142 832.644 990.016 845.684 C 1045.15 871.852 1084.86 920.175 1091.09 981.955 C 1093.93 1010.06 1089.6 1042.46 1077.37 1068.1 C 1061.35 1055.37 1048.51 1043.63 1038.41 1025.79 C 1045.11 961.268 1022.32 910.394 958.03 888.341 C 926.029 877.253 890.924 879.413 860.524 894.342 C 832.951 908.179 812.171 932.609 802.935 962.044 C 793.07 992.642 796.696 1020.42 811.051 1048.66 C 845.834 1110.03 904.838 1122.78 968.48 1099.61 C 977.984 1113.58 994.469 1129.94 1006.75 1141.72 C 983.518 1153.6 961.411 1162.36 935.085 1164.81 C 887.179 1169.64 839.383 1154.67 802.782 1123.39 C 768.552 1094.14 747.551 1052.33 744.523 1007.41 C 737.517 914.091 811.543 835.635 903.555 828.415 z" fill="rgb(16,14,106)" transform="translate(0,0)"></path>
<path d="M 1001.03 1237.18 C 1001.7 1240.83 1001.08 1254.28 1000.97 1258.77 C 993.756 1265.87 977.596 1277.58 969.094 1283.93 C 954.535 1294.73 940.105 1305.71 925.808 1316.85 C 951.091 1336.24 977.075 1353.9 1002 1374.12 C 1001.91 1382.76 1001.87 1388.38 1002.79 1396.9 C 997.373 1393.37 990.84 1388.36 985.5 1384.48 C 955.041 1361.38 924.317 1338.63 893.332 1316.24 C 919.431 1297.72 944.364 1277.56 970.579 1259.11 C 980.718 1251.98 990.519 1243.78 1001.03 1237.18 z" fill="rgb(16,14,106)" transform="translate(0,0)"></path>
<path d="M 1050.03 1238.36 C 1053.01 1239.8 1075.2 1256.38 1079.54 1259.59 C 1104.91 1278.39 1131.68 1296.89 1156.29 1316.55 C 1148.21 1323.36 1133.07 1333.66 1124.17 1340.16 L 1066.13 1383.02 L 1049.22 1395.97 C 1048.9 1388.68 1049.06 1380.53 1049.05 1373.16 C 1057.28 1366.12 1070.58 1356.95 1079.6 1350.31 C 1094.8 1339.11 1110.79 1327.07 1126.37 1316.57 C 1103.84 1297.84 1073.56 1279.36 1049.21 1259.02 C 1049.75 1252.19 1049.84 1245.22 1050.03 1238.36 z" fill="rgb(16,14,106)" transform="translate(0,0)"></path>
<metadata><recraft-signature>{"signed_by": "recraft", "signature_b64": "6aylDqSgd1UA8NxMaFMwxYW+WitgHu2/GVZnefy5jzQnVK6QKTgs4RbriFwwkKeY9Zou0bSTPcbMtsRginBWAQ==", "signing_algo": "Ed25519", "generation_timestamp": 1776664472, "identifier": "95a10986-747e-4621-955c-b03f935afc1f"}</recraft-signature></metadata></svg>